:SAMPLES-PER-SECOND 30
:FULLY-SPECIFIED
:DEGREES
145
root  -65.8835 41.6778 -4.1134 174.128 -86.9739 -175.709
RightUpLeg  0.637199 -7.31129 -4.9355
RightLeg  2.23947 -1.37573 3.08309
RightFoot  -0.0758115 -0.0577718 0.580275
RightToes  5.82063e-011 0 -3.6325e-017
Spine  -0.275427 0.432903 2.87506
Spine1  4.47968 0.627079 -1.17593
HEad  -6.72786 1.93795 -2.75657
LeftShoulder1  1.06773 -2.51124 -10.4129
LeftArm  -18.0238 5.59389 6.49922
LeftForeArm  6.18162 -4.92388 -2.37052
LeftHand  -0.244104 0.0205437 5.32207
RightShoulder  0.36549 -0.858314 6.11255
RightArm  -23.8818 2.47035 -2.19374
RightForeArm  -4.76602 4.99511 3.53559
RightHand  -0.940293 2.42594 -14.1259
LeftUpLeg  3.52184 4.34872 0.976659
LeftLeg  1.16203 9.91169 -3.9806
LeftFoot  -3.53843 -0.220302 3.54859
LeftToes  3.81955e-011 1.3492e-010 1.36421e-011
146
root  -65.9634 41.6842 -4.22057 173.214 -87.2051 -174.502
RightUpLeg  0.61213 -7.2065 -4.72191
RightLeg  2.01439 -1.74737 3.12498
RightFoot  -0.138304 -0.0401866 0.399957
RightToes  5.82063e-011 0 -3.6325e-017
Spine  -0.343493 0.402915 2.45866
Spine1  4.55347 0.476493 -0.605429
HEad  -6.81878 2.12894 -3.11941
LeftShoulder1  1.10448 -2.55851 -10.9288
LeftArm  -17.6079 5.44693 6.499
LeftForeArm  6.37002 -4.758 -2.52707
LeftHand  -0.244104 0.0205437 5.32207
RightShoulder  0.386523 -0.708621 6.12523
RightArm  -23.0381 2.46105 -1.89841
RightForeArm  -4.09826 4.32538 3.60793
RightHand  -0.919642 2.37929 -13.8967
LeftUpLeg  3.31601 4.28034 1.09449
LeftLeg  1.15332 9.72838 -3.82783
LeftFoot  -3.54183 -0.208062 3.372
LeftToes  3.81955e-011 1.3492e-010 1.36421e-011
147
root  -66.0379 41.6883 -4.31661 172.773 -87.3548 -173.766
RightUpLeg  0.497329 -7.13725 -4.5505
RightLeg  1.90437 -2.01346 3.17752
RightFoot  -0.231923 -0.0245424 0.235577
RightToes  5.82063e-011 0 -3.6325e-017
Spine  -0.544556 0.394011 2.22256
Spine1  4.83604 0.395547 -0.270973
HEad  -7.06732 2.21878 -3.26882
LeftShoulder1  1.17308 -2.76542 -11.4772
LeftArm  -17.7437 5.48153 6.72298
LeftForeArm  6.72153 -4.54769 -2.41386
LeftHand  -0.244104 0.0205437 5.32207
RightShoulder  0.404312 -0.595852 6.21084
RightArm  -22.6721 2.33995 -1.8786
RightForeArm  -3.86106 3.93362 3.61387
RightHand  -0.955017 2.60644 -14.0266
LeftUpLeg  3.10088 4.24484 1.20836
LeftLeg  1.15828 9.57579 -3.73305
LeftFoot  -3.56618 -0.19351 3.16302
LeftToes  3.81955e-011 1.3492e-010 1.36421e-011
148
root  -66.1082 41.6912 -4.40029 173.677 -87.3744 -174.487
RightUpLeg  0.426138 -7.13742 -4.47863
RightLeg  1.89446 -2.05287 3.23712
RightFoot  -0.318138 -0.0174436 0.1536
RightToes  5.82063e-011 0 -3.6325e-017
Spine  -0.618157 0.396857 2.1488
Spine1  5.10598 0.392583 -0.226765
HEad  -7.37591 2.34142 -3.14392
LeftShoulder1  1.24354 -3.00389 -11.922
LeftArm  -17.9082 5.64136 7.09746
LeftForeArm  7.19745 -4.47894 -2.27846
LeftHand  -0.244104 0.0205437 5.32207
RightShoulder  0.411613 -0.567186 6.3383
RightArm  -22.9735 2.27561 -1.94118
RightForeArm  -3.51564 3.62004 3.4443
RightHand  -0.953178 2.61958 -13.9774
LeftUpLeg  3.05796 4.24331 1.28553
LeftLeg  1.07596 9.52553 -3.71883
LeftFoot  -3.57624 -0.181422 2.99357
LeftToes  3.81955e-011 1.3492e-010 1.36421e-011
149
root  -66.1773 41.6954 -4.47212 174.374 -87.3425 -175.093
RightUpLeg  0.459269 -7.11527 -4.40396
RightLeg  1.85777 -2.04269 3.26139
RightFoot  -0.364431 -0.00848295 0.0626849
RightToes  5.82063e-011 0 -3.6325e-017
Spine  -0.501762 0.365506 2.26702
Spine1  5.17921 0.424166 -0.499958
HEad  -7.44671 2.54171 -2.91916
LeftShoulder1  1.26713 -3.10797 -11.9853
LeftArm  -17.7358 5.82874 7.3204
LeftForeArm  7.34119 -4.46657 -2.29776
LeftHand  -0.244104 0.0205437 5.32207
RightShoulder  0.403422 -0.653619 6.49291
RightArm  -23.2547 2.3617 -2.02682
RightForeArm  -3.3958 3.37515 3.32566
RightHand  -0.9134 2.39268 -13.7818
LeftUpLeg  3.13612 4.23716 1.34691
LeftLeg  0.949276 9.55264 -3.69239
LeftFoot  -3.56028 -0.173922 2.89341
LeftToes  3.81955e-011 1.3492e-010 1.36421e-011
150
root  -66.2477 41.7011 -4.53818 173.596 -87.3319 -174.205
RightUpLeg  0.495798 -6.98678 -4.21425
RightLeg  1.76088 -2.18683 3.21762
RightFoot  -0.390932 0.0125729 -0.158901
RightToes  5.82063e-011 0 -3.6325e-017
Spine  -0.400605 0.296976 2.53107
Spine1  5.1212 0.459245 -0.97904
HEad  -7.11457 2.69717 -2.71223
LeftShoulder1  1.24698 -3.11543 -11.6262
LeftArm  -17.3644 6.01352 7.26246
LeftForeArm  7.10819 -4.3217 -2.40029
LeftHand  -0.244104 0.0205437 5.32207
RightShoulder  0.392906 -0.765284 6.71295
RightArm  -23.1213 2.47382 -2.2212
RightForeArm  -3.58814 3.33444 3.383
RightHand  -0.893487 2.26665 -13.7004
LeftUpLeg  3.1631 4.26749 1.47353
LeftLeg  0.881643 9.52063 -3.6567
LeftFoot  -3.55494 -0.168524 2.82527
LeftToes  3.81955e-011 1.3492e-010 1.36421e-011
